<?xml version="1.0" encoding="UTF-8" standalone="no"?>
<!-- Created with Inkscape (http://www.inkscape.org/) -->

<svg
   xmlns:dc="http://purl.org/dc/elements/1.1/"
   xmlns:cc="http://creativecommons.org/ns#"
   xmlns:rdf="http://www.w3.org/1999/02/22-rdf-syntax-ns#"
   xmlns:svg="http://www.w3.org/2000/svg"
   xmlns="http://www.w3.org/2000/svg"
   xmlns:sodipodi="http://sodipodi.sourceforge.net/DTD/sodipodi-0.dtd"
   xmlns:inkscape="http://www.inkscape.org/namespaces/inkscape"
   width="193.87138mm"
   height="84.894127mm"
   viewBox="0 0 193.87138 84.894127"
   version="1.1"
   id="svg8"
   inkscape:version="0.92.3 (2405546, 2018-03-11)"
   sodipodi:docname="logo.svg"
   inkscape:export-filename="/home/abraham/Google Drive/Work/Graphic Design/Abraham Murciano Graphic Design/logo.png"
   inkscape:export-xdpi="251.62401"
   inkscape:export-ydpi="251.62401">
  <defs
     id="defs2" />
  <sodipodi:namedview
     id="base"
     pagecolor="#ffffff"
     bordercolor="#666666"
     borderopacity="1.0"
     inkscape:pageopacity="0.0"
     inkscape:pageshadow="2"
     inkscape:zoom="1.0784921"
     inkscape:cx="363.8682"
     inkscape:cy="75.577146"
     inkscape:document-units="mm"
     inkscape:current-layer="text16"
     showgrid="false"
     fit-margin-top="0"
     fit-margin-left="0"
     fit-margin-right="0"
     fit-margin-bottom="0"
     inkscape:window-width="1853"
     inkscape:window-height="1025"
     inkscape:window-x="67"
     inkscape:window-y="27"
     inkscape:window-maximized="1" />
  <metadata
     id="metadata5">
    <rdf:RDF>
      <cc:Work
         rdf:about="">
        <dc:format>image/svg+xml</dc:format>
        <dc:type
           rdf:resource="http://purl.org/dc/dcmitype/StillImage" />
        <dc:title></dc:title>
      </cc:Work>
    </rdf:RDF>
  </metadata>
  <g
     inkscape:label="Layer 1"
     inkscape:groupmode="layer"
     id="layer1"
     transform="translate(-51.564308,-149.55294)">
    <g
       id="g948"
       transform="translate(-4e-6,-22.012206)"
       style="fill:#030303;fill-opacity:1">
      <g
         id="g73"
         transform="translate(-1.0583338)">
        <path
           inkscape:connector-curvature="0"
           id="path49"
           style="font-style:normal;font-variant:normal;font-weight:normal;font-stretch:normal;font-size:medium;line-height:1.25;font-family:Angeletta;-inkscape-font-specification:Angeletta;letter-spacing:0px;word-spacing:0px;fill:#030303;fill-opacity:1;stroke:none;stroke-width:0.6526137"
           d="m 54.509108,243.15206 q -0.458869,0 -0.917738,-0.28042 -0.433377,-0.28042 -0.433377,-0.73929 0,-1.19816 4.996574,-5.58291 l 2.370823,-2.11589 q -3.339546,0.3314 -7.724295,1.63153 -0.178449,-0.15296 -0.178449,-1.55506 v -0.25492 q 0.02549,-0.12747 1.019709,-0.3569 0.994216,-0.25493 1.198158,-0.25493 0.101971,0 0.101971,0.10197 0,0.0765 -0.127464,0.25493 -0.101971,0.17845 -0.101971,0.20394 2.651244,-0.43337 7.137963,-0.94323 l 4.155313,-3.69644 q 7.698802,-6.78107 10.222582,-10.1716 0.229434,-0.30591 0.382391,-0.30591 0.127463,0 0.127463,0.30591 0,0.56084 -0.38239,1.37661 -0.356899,0.81576 -0.968724,1.35111 l -0.433376,0.3569 q 0.152956,-0.10197 0.254927,-0.10197 0.637318,0 0.968724,0.45887 0.331405,0.43337 0.331405,1.07069 0,0.20394 -0.127464,0.20394 -0.02549,0 -0.127463,-0.051 -0.101971,-0.051 -0.254928,-0.051 -0.611825,0 -2.166881,3.1611 -1.529563,3.13561 -2.396316,5.30249 1.733505,0 1.733505,0.79027 0,0.3569 -0.178449,0.66281 -0.152956,0.28042 -0.28042,0.28042 0,-0.15295 -0.509854,-0.48436 -0.509855,-0.3569 -0.994216,-0.40788 -0.07648,0.20394 -0.331406,1.17266 -0.229434,0.94323 -0.484361,2.39632 -0.254928,1.45308 -0.254928,2.4473 0,0.99422 0.56084,0.99422 0.535347,0 1.351115,-0.56084 l 0.280419,-0.20395 q 0.05099,0 0.05099,0.10197 0,0.10198 -0.305913,0.45887 -0.305912,0.38239 -0.994216,0.76479 -0.688303,0.40788 -1.453085,0.40788 -1.529563,0 -1.529563,-1.86097 0,-1.91195 1.631534,-6.24572 -4.996574,0.56084 -7.724295,1.4276 -1.351114,0.81576 -3.925879,3.46701 -2.574765,2.65124 -3.033634,3.8494 -0.178449,0.48436 -0.178449,0.73929 0,0.051 0.02549,0.15295 0.02549,0.10197 0.02549,0.12747 0,0.20394 -0.407883,0.20394 z m 9.075409,-10.12061 q 2.549272,-0.58634 6.449658,-0.58634 0.433377,-1.14717 1.070695,-2.7787 0.662811,-1.63154 1.733505,-3.8494 1.070694,-2.24336 1.758998,-3.03364 -1.427593,1.27464 -5.353472,4.97108 -3.135605,2.95716 -5.659384,5.277 z" />
        <path
           inkscape:connector-curvature="0"
           id="path51"
           style="font-style:normal;font-variant:normal;font-weight:normal;font-stretch:normal;font-size:medium;line-height:1.25;font-family:Angeletta;-inkscape-font-specification:Angeletta;letter-spacing:0px;word-spacing:0px;fill:#030303;fill-opacity:1;stroke:none;stroke-width:0.6526137"
           d="m 76.177922,239.63406 q -0.866752,0 -1.453085,-0.40788 -0.56084,-0.40789 -0.56084,-1.0452 0,-0.58634 0.509855,-1.24915 2.115896,-4.61418 5.098544,-9.4578 3.008141,-4.84361 3.976865,-4.84361 0.56084,0 0.866752,0.28042 0.305913,0.28042 0.305913,0.63731 0,0.15296 -0.101971,0.22944 -1.351114,1.01971 -3.135605,3.44152 -1.758998,2.39631 -2.753214,4.05334 -0.968723,1.65703 -1.657027,2.93166 0.305913,-0.43337 1.096187,-1.35111 0.815768,-0.91774 2.141389,-2.01393 1.351114,-1.12168 2.166881,-1.12168 0.994217,0 0.994217,1.45309 0,1.35111 -0.586333,2.37082 0.433376,0 0.433376,0.20394 0,0.22944 -0.688303,0.43338 -1.045202,2.16688 -2.829692,3.82391 -1.784491,1.63153 -3.823909,1.63153 z m 1.019709,-4.15531 q 3.441518,-1.22365 4.384748,-1.50407 0.535348,-1.22365 0.535348,-1.98843 0,-0.84126 -0.586333,-0.84126 -0.586333,0 -1.4021,0.81576 -0.815767,0.81577 -2.931663,3.518 z m -0.994216,3.39053 q 1.172665,0 2.651243,-1.4021 1.478578,-1.4021 2.421809,-2.8042 -2.064911,0.73929 -3.492503,1.50407 -2.115896,1.14717 -2.115896,2.24336 0,0.45887 0.535347,0.45887 z" />
        <path
           inkscape:connector-curvature="0"
           id="path53"
           style="font-style:normal;font-variant:normal;font-weight:normal;font-stretch:normal;font-size:medium;line-height:1.25;font-family:Angeletta;-inkscape-font-specification:Angeletta;letter-spacing:0px;word-spacing:0px;fill:#030303;fill-opacity:1;stroke:none;stroke-width:0.6526137"
           d="m 85.532979,238.99674 q -1.300129,0 -1.300129,-1.52956 0,-1.14717 0.662811,-2.67674 0.688304,-1.60604 1.886462,-3.54348 -0.305913,0.051 -0.586333,0.051 -0.866753,0 -1.198158,-0.25493 -0.356898,0.40789 -1.172665,1.73351 -1.758998,2.72772 -2.064911,2.72772 -0.203942,0 -0.203942,-0.3569 0,-0.12746 0.101971,-0.25492 1.172666,-1.68252 2.600258,-4.25729 -0.331405,-0.3314 -0.331405,-0.76478 0,-0.7138 0.56084,-1.45309 0.586332,-0.73928 1.555056,-0.73928 0.586332,0 0.586332,0.38239 0,0.38239 -0.637318,1.30012 -0.611825,0.89225 -0.611825,0.96873 0.02549,0.12746 0.433376,0.25493 0.433376,0.10197 0.866753,0.10197 0.229434,0 0.509854,-0.0765 0.305913,-0.10197 0.713796,-0.10197 0.433377,0 0.662811,0.17845 0.254927,0.15295 0.254927,0.35689 0,0.3569 -0.433376,0.84126 -0.968723,1.04521 -1.809983,2.60026 -0.815767,1.52957 -0.815767,2.67674 0,0.56084 0.484361,0.56084 0.28042,0 0.509855,-0.10197 0.254927,-0.10197 0.713796,-0.43338 0.458869,-0.3314 1.12168,-1.14717 0.688303,-0.84126 1.555056,-2.14139 0.229434,-0.33141 0.305913,-0.33141 0.10197,0 0.178449,0.15296 0.07648,0.12746 0.07648,0.25493 0,0.10197 -0.101971,0.25492 -3.135605,4.76714 -5.073052,4.76714 z" />
        <path
           inkscape:connector-curvature="0"
           id="path55"
           style="font-style:normal;font-variant:normal;font-weight:normal;font-stretch:normal;font-size:medium;line-height:1.25;font-family:Angeletta;-inkscape-font-specification:Angeletta;letter-spacing:0px;word-spacing:0px;fill:#030303;fill-opacity:1;stroke:none;stroke-width:0.6526137"
           d="m 95.220212,238.94576 q -1.045201,0 -1.045201,-1.45309 0,-1.58055 1.249143,-4.07883 -0.433376,0.48436 -1.223651,1.63153 -0.535347,0.79028 -0.917738,1.30013 -0.356898,0.50986 -0.892245,1.14717 -0.535347,0.61183 -1.019709,0.94323 -0.458869,0.30592 -0.866752,0.30592 -0.586333,0 -1.070695,-0.38239 -0.458869,-0.3824 -0.458869,-1.24915 0,-1.58055 1.809984,-4.38475 0.968723,-1.50407 2.498286,-2.49828 1.529564,-0.99422 2.880678,-0.99422 0.56084,0 1.376607,0.30591 0.815767,0.28042 0.815767,0.73929 0,0.25493 -0.178449,0.25493 -0.07648,0 -0.28042,-0.12746 -0.611825,-0.3569 -1.172665,-0.3569 -2.166881,0 -4.410241,3.08462 -2.192374,2.98265 -2.192374,4.23179 0,0.38239 0.305913,0.38239 0.305912,0 0.815767,-0.40788 1.631534,-1.32562 2.957155,-3.13561 1.325622,-1.83547 1.809984,-2.93166 0.02549,-0.10197 0.178449,-0.10197 0.331405,0 0.713796,0.38239 0.407884,0.38239 0.407884,0.84126 0,0.25493 -0.101971,0.43338 -1.453086,2.47279 -1.453086,3.92587 0,0.76479 0.484362,0.76479 0.688304,0 2.498287,-2.34533 0.713796,-0.91774 0.917738,-1.14718 0.229434,-0.22943 0.356894,-0.22943 0.25493,0 0.25493,0.17845 0,0.0765 -0.356897,0.61182 -0.994216,1.60604 -2.34533,2.98265 -1.325622,1.37661 -2.345331,1.37661 z" />
        <path
           inkscape:connector-curvature="0"
           id="path57"
           style="font-style:normal;font-variant:normal;font-weight:normal;font-stretch:normal;font-size:medium;line-height:1.25;font-family:Angeletta;-inkscape-font-specification:Angeletta;letter-spacing:0px;word-spacing:0px;fill:#030303;fill-opacity:1;stroke:none;stroke-width:0.6526137"
           d="m 99.375527,239.04773 q -0.458869,0 -0.739289,-0.3569 -0.254928,-0.3314 -0.254928,-0.63732 0,-1.12168 1.759,-4.5377 1.78449,-3.41603 4.05334,-6.78107 2.0904,-3.11011 3.69645,-4.79263 1.60604,-1.68252 2.49828,-1.68252 0.50986,0 1.50407,0.61183 1.01971,0.61182 1.01971,1.14717 0,0.99422 -4.25728,4.9201 -4.23179,3.90038 -6.62811,5.63389 -0.61183,1.17266 -1.22365,3.1611 1.09619,-1.65703 3.39053,-3.84941 1.19816,-1.12168 2.1159,-1.12168 1.0452,0 1.0452,1.24915 0,0.12746 -0.20394,1.70801 -0.17845,1.55506 -0.17845,2.42181 0,1.35111 0.58633,1.35111 0.6883,0 2.52378,-2.54927 l 0.12746,-0.20394 q 0.63732,-0.89225 0.79028,-0.89225 0.25493,0 0.25493,0.3569 0,0.10197 -0.051,0.17845 l -0.50985,0.76478 q -0.3824,0.63732 -1.22366,1.65703 -0.48436,0.58633 -0.81576,0.91774 -0.30592,0.30591 -0.84126,0.66281 -0.50986,0.3314 -0.99422,0.3314 -1.37661,0 -1.37661,-2.57476 0,-0.50986 0.0765,-1.52956 0.10197,-1.04521 0.10197,-1.45309 0,-1.09619 -0.40788,-1.09619 -0.76478,0 -2.31984,2.14139 -1.55505,2.1159 -2.88068,4.53771 -0.331401,0.30591 -0.637313,0.30591 z m 3.517993,-7.97922 q 2.90617,-2.4728 5.81234,-5.32798 2.93167,-2.85519 2.93167,-3.59448 0,-0.53534 -0.61183,-0.53534 -1.22365,0 -3.59447,2.90617 -2.37083,2.88068 -4.53771,6.55163 z" />
        <path
           inkscape:connector-curvature="0"
           id="path59"
           style="font-style:normal;font-variant:normal;font-weight:normal;font-stretch:normal;font-size:medium;line-height:1.25;font-family:Angeletta;-inkscape-font-specification:Angeletta;letter-spacing:0px;word-spacing:0px;fill:#030303;fill-opacity:1;stroke:none;stroke-width:0.6526137"
           d="m 115.9203,238.94576 q -1.0452,0 -1.0452,-1.45309 0,-1.58055 1.24915,-4.07883 -0.43338,0.48436 -1.22365,1.63153 -0.53535,0.79028 -0.91774,1.30013 -0.3569,0.50986 -0.89225,1.14717 -0.53534,0.61183 -1.01971,0.94323 -0.45887,0.30592 -0.86675,0.30592 -0.58633,0 -1.07069,-0.38239 -0.45887,-0.3824 -0.45887,-1.24915 0,-1.58055 1.80998,-4.38475 0.96872,-1.50407 2.49829,-2.49828 1.52956,-0.99422 2.88068,-0.99422 0.56084,0 1.3766,0.30591 0.81577,0.28042 0.81577,0.73929 0,0.25493 -0.17845,0.25493 -0.0765,0 -0.28042,-0.12746 -0.61182,-0.3569 -1.17266,-0.3569 -2.16689,0 -4.41025,3.08462 -2.19237,2.98265 -2.19237,4.23179 0,0.38239 0.30591,0.38239 0.30592,0 0.81577,-0.40788 1.63153,-1.32562 2.95716,-3.13561 1.32562,-1.83547 1.80998,-2.93166 0.0255,-0.10197 0.17845,-0.10197 0.3314,0 0.71379,0.38239 0.40789,0.38239 0.40789,0.84126 0,0.25493 -0.10197,0.43338 -1.45309,2.47279 -1.45309,3.92587 0,0.76479 0.48436,0.76479 0.68831,0 2.49829,-2.34533 0.7138,-0.91774 0.91774,-1.14718 0.22943,-0.22943 0.3569,-0.22943 0.25492,0 0.25492,0.17845 0,0.0765 -0.35689,0.61182 -0.99422,1.60604 -2.34533,2.98265 -1.32563,1.37661 -2.34534,1.37661 z" />
        <path
           inkscape:connector-curvature="0"
           id="path61"
           style="font-style:normal;font-variant:normal;font-weight:normal;font-stretch:normal;font-size:medium;line-height:1.25;font-family:Angeletta;-inkscape-font-specification:Angeletta;letter-spacing:0px;word-spacing:0px;fill:#030303;fill-opacity:1;stroke:none;stroke-width:0.6526137"
           d="m 121.86011,238.81829 q -0.3569,0 -0.68831,-0.12746 -0.30591,-0.10197 -0.30591,-0.25493 0,-0.051 0.0255,-0.0765 0.12747,-0.22944 0.56084,-0.96873 0.43338,-0.76478 0.61183,-1.07069 0.17845,-0.30591 0.56084,-0.99422 0.38239,-0.6883 0.58633,-1.12168 0.22943,-0.43337 0.50985,-1.0452 0.28042,-0.61182 0.48437,-1.17266 0.20394,-0.56084 0.38239,-1.12168 0.051,-0.15296 0.051,-0.3569 0,-0.30592 -0.3314,-0.30592 -0.33141,0 -0.86676,0.61183 -0.50985,0.58633 -1.45308,1.96294 -0.48436,0.76478 -1.86097,2.60026 -0.20394,0.28042 -0.28042,0.28042 -0.15296,0 -0.15296,-0.40789 0,-0.22943 0.051,-0.30591 0.17845,-0.25493 0.56084,-0.81577 0.38239,-0.58633 0.66281,-0.99421 0.28042,-0.43338 0.40788,-0.63732 l 1.96294,-3.1611 q 0.17845,-0.28042 0.94323,-0.28042 0.66282,0 1.32563,0.45887 0.66281,0.43338 0.66281,1.01971 0,0.40788 -0.25493,0.99422 -0.22944,0.56084 -0.61183,1.24914 -0.38239,0.6883 -0.50985,0.99422 2.85518,-3.72194 4.69066,-3.72194 1.24914,0 1.24914,1.7335 0,1.04521 -0.38239,1.96294 l -0.25492,0.61183 q 1.86096,-2.03942 2.31983,-2.4728 1.19816,-1.12168 2.1159,-1.12168 1.07069,0 1.07069,1.30013 0,0.17845 -0.20394,1.70802 -0.17845,1.50407 -0.17845,2.31983 0,1.37661 0.45887,1.37661 0.58633,0 2.82969,-2.82969 0.66281,-0.84126 0.84126,-0.84126 0.22944,0 0.22944,0.20394 0,0.17845 -0.73929,1.19816 -0.7138,0.99421 -1.24914,1.58055 -1.68252,1.91195 -2.62575,1.91195 -1.24915,0 -1.24915,-2.54927 0,-0.50986 0.051,-1.52956 0.0765,-1.04521 0.0765,-1.45309 0,-1.09619 -0.40789,-1.09619 -0.76478,0 -2.54927,2.21787 -0.96872,1.30013 -1.50407,2.21787 -0.38239,0.6883 -0.58633,0.94323 -0.66281,0.73929 -1.19816,0.73929 -0.53535,0 -0.53535,-0.61183 0,-0.15295 0.15296,-0.61182 0.12746,-0.38239 0.6883,-1.60605 0.58633,-1.22365 1.01971,-2.29434 0.43338,-1.07069 0.43338,-1.52956 0,-0.73929 -0.53535,-0.73929 -0.28042,0 -0.89225,0.40788 -0.58633,0.40788 -1.07069,0.91774 -0.76478,0.79027 -1.60604,1.93745 -1.80998,2.39631 -2.90617,4.56319 -0.10197,0.20394 -0.58633,0.20394 z" />
        <path
           inkscape:connector-curvature="0"
           id="path63"
           style="font-style:normal;font-variant:normal;font-weight:normal;font-stretch:normal;font-size:medium;line-height:1.25;font-family:Angeletta;-inkscape-font-specification:Angeletta;letter-spacing:0px;word-spacing:0px;fill:#030303;fill-opacity:1;stroke:none;stroke-width:0.6526137"
           d="m 149.51971,244.68162 q -0.30591,0 -0.30591,-0.25493 0,-0.10197 0.20394,-0.50985 1.47858,-3.00814 2.42181,-4.5632 0.94323,-1.55505 3.13561,-4.61418 1.14717,-1.60604 2.88067,-3.72194 1.73351,-2.11589 2.37083,-2.67673 0.71379,-2.8042 0.71379,-4.74165 0,-3.69645 -2.67673,-3.69645 -1.93745,0 -5.09855,1.73351 -2.29434,1.24914 -4.5377,3.00814 -2.24336,1.759 -3.56898,3.31406 -0.25493,0.28042 -0.25493,0.38239 0,0.051 0.12746,0.051 0.0765,0 0.40789,-0.0255 0.3314,-0.051 0.50985,-0.051 0.22944,0 0.22944,0.0765 -0.0255,0 -0.22944,0.10197 -0.73929,0.40789 -1.30013,0.40789 -0.43337,0 -0.79027,-0.50986 -0.33141,-0.53535 -0.33141,-0.73929 0,-1.01971 2.85519,-3.08462 2.88068,-2.0904 6.2967,-3.59447 3.72194,-1.68252 6.11825,-1.68252 3.92588,0 3.92588,4.41024 0,0.99422 -0.20394,2.29435 2.39632,-2.39632 4.69066,-4.00236 2.31984,-1.63154 3.8494,-1.63154 0.86676,0 1.4021,0.66281 0.53535,0.63732 0.53535,2.03942 0,0.96873 -0.40788,2.4728 -0.40789,1.47857 -0.86676,2.65124 -0.45887,1.14717 -1.19815,2.90617 -0.7138,1.73351 -0.96873,2.37082 -0.15295,0.38239 -0.15295,0.53535 0,0.10197 0.0765,0.10197 0.12747,0 0.43338,-0.3569 4.12982,-5.09854 7.64782,-6.57712 0.63732,-0.25493 1.14717,-0.25493 0.73929,0 0.73929,0.61183 0,0.20394 -0.12746,0.58633 -2.65125,7.39289 -2.65125,11.42074 0,3.82391 2.4728,3.82391 1.0452,0 2.34533,-0.79028 1.32562,-0.76478 2.47279,-2.0904 0.38239,-0.43337 0.45887,-0.43337 0.12746,0 0.12746,0.17844 0,0.3569 -0.35689,0.73929 -2.85519,3.26307 -5.65939,3.26307 -3.46701,0 -3.46701,-5.42995 0,-2.67673 0.76478,-5.88882 0.76478,-3.21208 1.45309,-4.66516 -1.50407,0.63731 -3.82391,2.98264 -2.31984,2.34533 -3.59447,4.12982 -0.73929,1.01971 -0.99422,1.27464 -0.25493,0.22944 -0.61183,0.22944 -0.25492,0 -0.48436,-0.10198 -0.20394,-0.10197 -0.20394,-0.25492 0,-0.15296 0.43338,-1.35112 0.91773,-2.49828 1.83547,-6.37318 0.91774,-3.87489 0.91774,-5.53192 0,-1.70801 -0.86675,-1.70801 -1.0452,0 -3.26307,1.86097 -2.19237,1.83547 -4.51221,4.33376 -0.86675,3.41603 -2.49829,6.57712 -1.60604,3.1611 -3.54349,5.14953 -1.93744,2.01393 -3.56898,2.01393 -0.40788,0 -0.81577,-0.20394 -0.35689,0.6883 -1.65702,2.90617 -0.30592,0.50985 -0.40789,0.50985 z m 2.42181,-3.92588 q 1.78449,-0.10197 3.97687,-3.1611 2.21786,-3.08462 3.61996,-7.06148 -3.23757,3.518 -7.59683,10.22258 z" />
        <path
           inkscape:connector-curvature="0"
           id="path65"
           style="font-style:normal;font-variant:normal;font-weight:normal;font-stretch:normal;font-size:medium;line-height:1.25;font-family:Angeletta;-inkscape-font-specification:Angeletta;letter-spacing:0px;word-spacing:0px;fill:#030303;fill-opacity:1;stroke:none;stroke-width:0.6526137"
           d="m 189.33934,238.92027 q -0.50985,0 -0.84126,-0.3569 -0.30591,-0.3569 -0.30591,-1.0707 0,-1.65702 1.27464,-4.07883 -0.45887,0.45887 -1.27464,1.68252 -2.42181,3.64546 -3.72194,3.64546 -0.58633,0 -1.19815,-0.38239 -0.58634,-0.40789 -0.58634,-1.22365 0,-1.14718 1.68252,-4.46123 0.12747,-0.25493 0.30592,-0.63732 0.17845,-0.40788 0.30591,-0.6883 0.12746,-0.28042 0.22943,-0.48436 0.0765,-0.20395 0.0765,-0.3569 0,-0.30592 -0.3569,-0.30592 -0.3314,0 -0.86675,0.61183 -0.50985,0.58633 -1.45308,1.96294 -0.25493,0.38239 -1.01971,1.42759 -0.73929,1.0452 -0.84126,1.22365 -0.20394,0.28042 -0.28042,0.28042 -0.15296,0 -0.15296,-0.40788 0,-0.22944 0.051,-0.30591 1.4021,-2.1159 1.63153,-2.49829 l 1.96294,-3.1611 q 0.17845,-0.28042 0.94323,-0.28042 0.66281,0 1.32562,0.45887 0.66281,0.43338 0.66281,1.01971 0,0.56084 -0.76478,1.96294 -0.61182,1.07069 -1.09619,2.1159 -1.07069,2.34533 -1.07069,3.03363 0,0.30591 0.22943,0.30591 0.30592,0 1.09619,-0.61182 1.96294,-1.58055 4.51221,-5.58291 0.38239,-0.58633 0.40789,-0.58633 0.30591,0 0.71379,0.40788 0.40789,0.38239 0.40789,0.86675 0,0.28042 -0.0765,0.3824 -1.50407,2.29434 -1.50407,3.95137 0,0.6883 0.48436,0.6883 0.3569,0 0.86675,-0.40788 0.53535,-0.43338 0.86675,-0.81577 0.33141,-0.38239 0.91774,-1.12168 0.33141,-0.40788 0.86676,-1.14717 0.15295,-0.17845 0.28042,-0.17845 0.22943,0 0.22943,0.28042 0,0.0765 -0.17845,0.40788 -0.10197,0.20394 -0.7138,1.01971 -0.58633,0.81577 -0.91773,1.19816 -2.03942,2.21787 -3.11012,2.21787 z" />
        <path
           inkscape:connector-curvature="0"
           id="path67"
           style="font-style:normal;font-variant:normal;font-weight:normal;font-stretch:normal;font-size:medium;line-height:1.25;font-family:Angeletta;-inkscape-font-specification:Angeletta;letter-spacing:0px;word-spacing:0px;fill:#030303;fill-opacity:1;stroke:none;stroke-width:0.6526137"
           d="m 196.98716,238.99674 q -1.30013,0 -1.30013,-1.52956 0,-1.14717 0.66281,-2.67674 0.6883,-1.60604 1.88646,-3.54348 -0.30591,0.051 -0.58633,0.051 -0.86675,0 -1.19816,-0.25493 -0.3569,0.40789 -1.17266,1.73351 -1.759,2.72772 -2.06491,2.72772 -0.20395,0 -0.20395,-0.3569 0,-0.12746 0.10198,-0.25492 1.17266,-1.68252 2.60025,-4.25729 -0.3314,-0.3314 -0.3314,-0.76478 0,-0.7138 0.56084,-1.45309 0.58633,-0.73928 1.55505,-0.73928 0.58634,0 0.58634,0.38239 0,0.38239 -0.63732,1.30012 -0.61183,0.89225 -0.61183,0.96873 0.0255,0.12746 0.43338,0.25493 0.43338,0.10197 0.86675,0.10197 0.22944,0 0.50986,-0.0765 0.30591,-0.10197 0.71379,-0.10197 0.43338,0 0.66281,0.17845 0.25493,0.15295 0.25493,0.35689 0,0.3569 -0.43338,0.84126 -0.96872,1.04521 -1.80998,2.60026 -0.81577,1.52957 -0.81577,2.67674 0,0.56084 0.48437,0.56084 0.28042,0 0.50985,-0.10197 0.25493,-0.10197 0.7138,-0.43338 0.45886,-0.3314 1.12168,-1.14717 0.6883,-0.84126 1.55505,-2.14139 0.22944,-0.33141 0.30591,-0.33141 0.10198,0 0.17845,0.15296 0.0765,0.12746 0.0765,0.25493 0,0.10197 -0.10197,0.25492 -3.1356,4.76714 -5.07305,4.76714 z" />
        <path
           inkscape:connector-curvature="0"
           id="path69"
           style="font-style:normal;font-variant:normal;font-weight:normal;font-stretch:normal;font-size:medium;line-height:1.25;font-family:Angeletta;-inkscape-font-specification:Angeletta;letter-spacing:0px;word-spacing:0px;fill:#030303;fill-opacity:1;stroke:none;stroke-width:0.6526137"
           d="m 203.4623,238.99674 q -2.47279,0 -2.47279,-2.47279 0,-1.45309 0.79027,-3.13561 0.79028,-1.68251 2.29435,-2.95715 1.50407,-1.27464 3.18659,-1.27464 0.84126,0 1.27464,0.38239 0.43337,0.38239 0.43337,0.99422 0,0.76478 -0.6883,1.759 -0.66281,0.96872 -1.91196,1.88646 -0.17845,0.12746 -0.35689,0.12746 -0.25493,0 -0.25493,-0.20394 0,-0.20394 0.25493,-0.43338 0.84126,-0.6883 1.30012,-1.45308 0.48437,-0.79027 0.48437,-1.37661 0,-0.66281 -0.61183,-0.66281 -0.84126,0 -1.96294,1.17267 -1.09619,1.17266 -1.80998,2.29434 -0.96873,1.60604 -0.96873,2.93167 0,1.55505 1.47858,1.55505 0.91774,0 1.759,-0.3569 0.84126,-0.38239 1.58055,-1.09618 0.73929,-0.7138 1.24914,-1.32563 0.50986,-0.63731 1.17267,-1.55505 0.12746,-0.15296 0.20394,-0.15296 0.17845,0 0.17845,0.3569 0,0.12746 -0.051,0.20394 -0.43337,0.7138 -0.71379,1.12168 -0.25493,0.40789 -0.94323,1.19816 -0.66281,0.79027 -1.30013,1.24914 -0.61183,0.45887 -1.58055,0.84126 -0.96873,0.38239 -2.01393,0.38239 z" />
        <path
           inkscape:connector-curvature="0"
           id="path71"
           style="font-style:normal;font-variant:normal;font-weight:normal;font-stretch:normal;font-size:medium;line-height:1.25;font-family:Angeletta;-inkscape-font-specification:Angeletta;letter-spacing:0px;word-spacing:0px;fill:#030303;fill-opacity:1;stroke:none;stroke-width:0.6526137"
           d="m 212.86912,228.67219 q -0.33141,0 -0.50986,-0.38239 -0.17845,-0.38239 -0.17845,-0.7138 0,-0.22943 0.0765,-0.3314 0.0255,0 0.10197,0.0255 0.10197,0 0.15296,0 1.45309,0 2.19237,-0.45887 0.10197,-0.051 0.15296,-0.051 0.10197,0 0.10197,0.12746 0,0.22944 -0.17845,0.3569 -0.20394,0.15296 -0.45887,0.40788 -1.07069,1.01971 -1.45308,1.01971 z m -3.18659,10.27357 q -1.17267,0 -1.17267,-1.50407 0,-0.94323 0.66281,-2.42181 2.14139,-4.5632 2.24336,-4.69066 0.15296,-0.15296 0.3569,-0.15296 0.30591,0 0.53535,0.30591 0.25493,0.30592 0.25493,0.7138 0,0.30591 -0.15296,0.61183 -0.40788,0.30591 -1.24914,1.98843 -0.84126,1.65703 -1.04521,2.57476 -0.051,0.17845 -0.051,0.48437 0,0.56084 0.40788,0.56084 0.76478,0 1.91196,-1.27464 0.43337,-0.48436 1.91195,-2.49829 0.15296,-0.17845 0.28042,-0.17845 0.22943,0 0.22943,0.30592 0,0.0765 -0.17844,0.40788 -0.45887,0.84126 -1.86097,2.54927 -1.88646,2.21787 -3.08462,2.21787 z" />
        <path
           inkscape:connector-curvature="0"
           id="path73"
           style="font-style:normal;font-variant:normal;font-weight:normal;font-stretch:normal;font-size:medium;line-height:1.25;font-family:Angeletta;-inkscape-font-specification:Angeletta;letter-spacing:0px;word-spacing:0px;fill:#030303;fill-opacity:1;stroke:none;stroke-width:0.6526137"
           d="m 219.21681,238.94576 q -1.04521,0 -1.04521,-1.45309 0,-1.58055 1.24915,-4.07883 -0.43338,0.48436 -1.22365,1.63153 -0.53535,0.79028 -0.91774,1.30013 -0.3569,0.50986 -0.89225,1.14717 -0.53534,0.61183 -1.01971,0.94323 -0.45886,0.30592 -0.86675,0.30592 -0.58633,0 -1.07069,-0.38239 -0.45887,-0.3824 -0.45887,-1.24915 0,-1.58055 1.80998,-4.38475 0.96873,-1.50407 2.49829,-2.49828 1.52956,-0.99422 2.88068,-0.99422 0.56084,0 1.3766,0.30591 0.81577,0.28042 0.81577,0.73929 0,0.25493 -0.17845,0.25493 -0.0765,0 -0.28042,-0.12746 -0.61182,-0.3569 -1.17266,-0.3569 -2.16689,0 -4.41024,3.08462 -2.19238,2.98265 -2.19238,4.23179 0,0.38239 0.30591,0.38239 0.30592,0 0.81577,-0.40788 1.63154,-1.32562 2.95716,-3.13561 1.32562,-1.83547 1.80998,-2.93166 0.0255,-0.10197 0.17845,-0.10197 0.3314,0 0.7138,0.38239 0.40788,0.38239 0.40788,0.84126 0,0.25493 -0.10197,0.43338 -1.45309,2.47279 -1.45309,3.92587 0,0.76479 0.48436,0.76479 0.68831,0 2.49829,-2.34533 0.7138,-0.91774 0.91774,-1.14718 0.22943,-0.22943 0.3569,-0.22943 0.25492,0 0.25492,0.17845 0,0.0765 -0.35689,0.61182 -0.99422,1.60604 -2.34533,2.98265 -1.32563,1.37661 -2.34533,1.37661 z" />
        <path
           inkscape:connector-curvature="0"
           id="path75"
           style="font-style:normal;font-variant:normal;font-weight:normal;font-stretch:normal;font-size:medium;line-height:1.25;font-family:Angeletta;-inkscape-font-specification:Angeletta;letter-spacing:0px;word-spacing:0px;fill:#030303;fill-opacity:1;stroke:none;stroke-width:0.6526137"
           d="m 225.15662,238.81829 q -0.3569,0 -0.6883,-0.12746 -0.30591,-0.10197 -0.30591,-0.25493 0,-0.051 0.53534,-0.96872 2.31984,-3.95137 3.1611,-6.52614 0.10197,-0.30591 0.10197,-0.43337 0,-0.30592 -0.3569,-0.30592 -0.3314,0 -0.86675,0.61183 -0.50985,0.58633 -1.45308,1.96294 -0.25493,0.38239 -1.01971,1.42759 -0.73929,1.0452 -0.84126,1.22365 -0.20394,0.28042 -0.28042,0.28042 -0.15296,0 -0.15296,-0.40788 0,-0.22944 0.051,-0.30591 1.4021,-2.1159 1.63153,-2.49829 l 1.96294,-3.1611 q 0.17845,-0.28042 0.94323,-0.28042 0.66281,0 1.32562,0.45887 0.66281,0.43338 0.66281,1.01971 0,0.30591 -0.3314,1.09619 -0.33141,0.76478 -0.84126,1.75899 -0.48436,0.99422 -0.63732,1.35112 2.19237,-2.4473 2.65124,-2.85519 1.19816,-1.12168 2.1159,-1.12168 1.07069,0 1.07069,1.30013 0,0.17845 -0.20394,1.70802 -0.17845,1.50407 -0.17845,2.31983 0,1.37661 0.45887,1.37661 0.58633,0 2.82969,-2.82969 0.66281,-0.84126 0.84126,-0.84126 0.22944,0 0.22944,0.20394 0,0.17845 -0.73929,1.19816 -0.7138,0.99421 -1.24914,1.58055 -1.68252,1.91195 -2.62575,1.91195 -1.24915,0 -1.24915,-2.54927 0,-0.50986 0.051,-1.52956 0.0765,-1.04521 0.0765,-1.45309 0,-1.09619 -0.40789,-1.09619 -0.71379,0 -2.26885,1.86097 -1.52956,1.86097 -2.90617,3.95137 l -0.48436,0.7138 q -0.15296,0.22943 -0.61183,0.22943 z" />
        <path
           inkscape:connector-curvature="0"
           id="path77"
           style="font-style:normal;font-variant:normal;font-weight:normal;font-stretch:normal;font-size:medium;line-height:1.25;font-family:Angeletta;-inkscape-font-specification:Angeletta;letter-spacing:0px;word-spacing:0px;fill:#030303;fill-opacity:1;stroke:none;stroke-width:0.6526137"
           d="m 237.8265,239.30266 q -0.73929,0 -1.24914,-0.45887 -0.48437,-0.43338 -0.48437,-1.45309 0,-1.68252 1.32563,-4.15531 1.32562,-2.49829 2.85518,-3.46701 0.25493,-0.15296 0.43338,-0.15296 0.43337,0 0.81576,0.30591 0.50986,-0.58633 1.12168,-0.58633 1.4276,0 1.4276,2.34533 0,1.0707 -0.56084,2.42181 -0.53535,1.32562 -1.4276,2.49829 0.25493,0.20394 0.56084,0.20394 1.17267,0 2.93167,-2.42181 l 0.50985,-0.7138 q 0.0765,-0.10197 0.12747,-0.10197 0.10197,0 0.17844,0.15296 0.10198,0.15296 0.10198,0.28042 0,0.10197 -0.051,0.17845 l -0.61183,0.86675 q -1.75899,2.4473 -3.23757,2.4473 -0.56084,0 -0.99422,-0.30591 -1.88646,2.1159 -3.77292,2.1159 z m 3.74743,-3.518 q 0.61183,-0.91774 1.14717,-2.49829 0.53535,-1.60604 0.53535,-2.52378 0,-0.71379 -0.43338,-0.71379 -0.25492,0 -0.53534,0.28042 -0.25493,0.28042 -0.43338,0.79027 -0.50985,1.47858 -0.50985,2.98265 0,0.99422 0.22943,1.68252 z m -3.39053,2.85519 q 1.19816,0 2.85518,-2.09041 -0.66281,-1.09618 -0.66281,-2.72772 0,-1.27463 0.40789,-2.49829 -1.09619,1.09619 -2.16689,2.95716 -1.0452,1.86097 -1.0452,3.518 0,0.84126 0.61183,0.84126 z" />
      </g>
    </g>
    <g
       aria-label="Graphic Designer"
       style="font-style:normal;font-weight:normal;font-size:10.58333302px;line-height:1.25;font-family:sans-serif;letter-spacing:0px;word-spacing:0px;fill:#030303;fill-opacity:1;stroke:none;stroke-width:0.26458332"
       id="text16"
       transform="translate(9e-5,24.554483)">
      <g
         id="g56"
         transform="translate(-10.695399,-12.903266)">
        <g
           aria-label="Graphic &amp; Web Design"
           style="font-style:normal;font-weight:normal;font-size:10.58333302px;line-height:1.25;font-family:sans-serif;letter-spacing:0px;word-spacing:0px;fill:#000000;fill-opacity:1;stroke:none;stroke-width:0.07000434"
           id="text45">
          <path
             d="m 112.51661,215.9696 q 0.34925,0 0.61383,0.0317 0.27517,0.0317 0.41275,0.0741 0.13758,0.0423 0.39158,0.127 0.254,0.0741 0.4445,0.127 0.0952,0.0212 0.17992,0.34925 0.127,0.47625 0.127,1.03717 0,0.15875 -0.16933,0.15875 -0.127,0 -0.34925,-0.42333 -0.52917,-1.00542 -2.01084,-1.00542 -1.02658,0 -1.7145,0.8255 -0.68791,0.81492 -0.68791,1.92617 0,1.19591 0.71966,2.0955 0.71967,0.89958 1.83092,0.89958 0.43392,0 0.89958,-0.127 0.46567,-0.13758 0.46567,-0.27517 v -1.28058 q 0,-0.0847 -0.1905,-0.22225 -0.1905,-0.13758 -0.381,-0.21167 -0.0529,-0.0212 -0.127,-0.0423 -0.0741,-0.0318 -0.11642,-0.0423 -0.0318,-0.0106 -0.0847,-0.0317 -0.0529,-0.0212 -0.0741,-0.0317 -0.0212,-0.0212 -0.0529,-0.0423 -0.0212,-0.0318 -0.0318,-0.0529 -0.0106,-0.0317 -0.0106,-0.0635 0,-0.16934 0.22225,-0.16934 0.127,0 0.67734,0.0212 0.56091,0.0212 0.75141,0.0212 0.17992,0 0.48684,-0.0212 0.30691,-0.0212 0.43391,-0.0212 0.21167,0 0.21167,0.21167 0,0.0529 -0.0847,0.127 -0.0741,0.0741 -0.16933,0.11642 -0.127,0.0529 -0.30692,0.20108 -0.16933,0.14817 -0.16933,0.23283 v 1.11125 q 0,0.13759 0.13758,0.29634 0.14817,0.14816 0.14817,0.17991 0,0.17992 -1.12183,0.381 -1.12184,0.20109 -1.9685,0.20109 -1.28059,0 -2.286,-0.92075 -0.99484,-0.92075 -0.99484,-2.16959 0,-1.55575 1.15359,-2.57175 1.15358,-1.02658 2.794,-1.02658 z"
             style="font-style:normal;font-variant:normal;font-weight:normal;font-stretch:normal;font-family:'EB Garamond SC';-inkscape-font-specification:'EB Garamond SC';stroke-width:0.07000434"
             id="path102" />
          <path
             d="m 117.74411,219.50443 q 0,0.381 0.34925,0.381 0.381,0 0.65617,-0.27516 0.27517,-0.28575 0.27517,-0.66675 0,-0.34925 -0.27517,-0.5715 -0.26458,-0.23284 -0.635,-0.23284 -0.15875,0 -0.26458,0.0952 -0.10584,0.0952 -0.10584,0.254 z m 0.74084,-1.91558 q 0.62441,0 1.0795,0.37042 0.45508,0.35983 0.45508,0.93133 0,0.43392 -0.254,0.762 -0.24342,0.3175 -0.65617,0.43392 -0.13758,0.0317 -0.0212,0.11641 0.35983,0.29634 0.92075,1.02659 0.5715,0.73025 0.85725,0.84666 0.0952,0.0423 0.21166,0.0847 0.11642,0.0423 0.17992,0.0635 0.0741,0.0212 0.127,0.0529 0.0635,0.0318 0.0847,0.0635 0.0318,0.0318 0.0318,0.0847 0,0.37042 -0.74084,0.37042 -0.20108,0 -0.48683,-0.10583 -0.27517,-0.0952 -0.46567,-0.28575 -0.26458,-0.26459 -0.67733,-0.79375 -0.40217,-0.52917 -0.64558,-0.78317 -0.33867,-0.35983 -0.58209,-0.35983 -0.0953,0 -0.10583,0 -0.0106,0 -0.0318,0.0635 -0.0212,0.0529 -0.0212,0.20108 v 0.30692 q 0,0.51858 0.10584,0.66675 0.0741,0.11641 0.23283,0.17991 0.0529,0.0212 0.14817,0.0635 0.0952,0.0317 0.15875,0.0635 0.0635,0.0318 0.127,0.0741 0.0741,0.0317 0.10583,0.0741 0.0423,0.0423 0.0423,0.0847 0,0.14816 -0.33866,0.17991 -0.0212,0 -0.1905,-0.0212 -0.15875,-0.0106 -0.41275,-0.0212 -0.24342,-0.0212 -0.46567,-0.0212 -0.22225,0 -0.45508,0.0212 -0.22225,0.0106 -0.37042,0.0212 -0.13758,0.0212 -0.15875,0.0212 -0.34925,-0.0318 -0.34925,-0.17991 0,-0.0423 0.0318,-0.0847 0.0423,-0.0423 0.10583,-0.0741 0.0741,-0.0423 0.13759,-0.0741 0.0635,-0.0317 0.15875,-0.0635 0.0953,-0.0423 0.14816,-0.0635 0.0529,-0.0212 0.0953,-0.0529 0.0423,-0.0318 0.0741,-0.0529 0.0318,-0.0318 0.0529,-0.0741 0.0318,-0.0423 0.0423,-0.0635 0.0212,-0.0317 0.0318,-0.0952 0.0106,-0.0635 0.0106,-0.0847 0.0106,-0.0212 0.0106,-0.0952 0.0106,-0.0847 0.0106,-0.10583 0,-0.0212 0,-0.10584 0,-0.0952 0,-0.11641 v -2.27542 q 0,-0.0952 -0.0106,-0.15875 0,-0.0741 0,-0.127 0,-0.0635 -0.0317,-0.10583 -0.0212,-0.0529 -0.0318,-0.0847 0,-0.0318 -0.0529,-0.0529 -0.0529,-0.0318 -0.0635,-0.0423 -0.0106,-0.0212 -0.0953,-0.0423 -0.0741,-0.0317 -0.10584,-0.0423 -0.0317,-0.0106 -0.14816,-0.0423 -0.10584,-0.0317 -0.15875,-0.0423 -0.16934,-0.0529 -0.16934,-0.22225 0,-0.0847 0.11642,-0.13759 0.11642,-0.0529 0.254,-0.0529 0.21167,0 0.48683,0.0318 0.28575,0.0212 0.47625,0.0212 0.17992,0 0.58209,-0.0317 0.40216,-0.0423 0.60325,-0.0423 z"
             style="font-style:normal;font-variant:normal;font-weight:normal;font-stretch:normal;font-family:'EB Garamond SC';-inkscape-font-specification:'EB Garamond SC';stroke-width:0.07000434"
             id="path104" />
          <path
             d="m 124.03954,220.13943 q -0.0318,0.0847 -0.0106,0.10584 0.0318,0.0212 0.15875,0.0212 h 0.81492 q 0.0953,0 0.10583,-0.0212 0.0106,-0.0318 -0.0212,-0.10584 -0.0106,-0.0106 -0.0212,-0.0212 0,-0.0106 0,-0.0212 l -0.34925,-1.15358 q -0.0212,-0.0529 -0.0529,-0.0741 -0.0318,-0.0212 -0.0635,0 -0.0318,0.0212 -0.0529,0.0847 z m 2.9845,1.75684 q 0.3175,0.127 0.3175,0.34925 0,0.14816 -0.33866,0.17991 -0.0212,0 -0.127,-0.0212 -0.10584,-0.0106 -0.30692,-0.0212 -0.1905,-0.0212 -0.41275,-0.0212 -0.22225,0 -0.41275,0.0212 -0.1905,0.0106 -0.29633,0.0212 -0.10584,0.0212 -0.127,0.0212 -0.34925,-0.0318 -0.34925,-0.17991 0,-0.11642 0.0847,-0.17992 0.0847,-0.0741 0.29634,-0.14817 0.0741,-0.0317 0.15875,-0.14816 0.0847,-0.11642 0.0635,-0.21167 l -0.16934,-0.56092 q -0.0529,-0.26458 -0.30691,-0.26458 h -1.02659 q -0.21166,0 -0.29633,0.23283 l -0.15875,0.48684 q -0.127,0.381 0.127,0.45508 0.45508,0.14817 0.45508,0.33867 0,0.14816 -0.33866,0.17991 -0.0212,0 -0.13759,-0.0212 -0.10583,-0.0106 -0.30691,-0.0212 -0.20109,-0.0212 -0.42334,-0.0212 -0.22225,0 -0.42333,0.0212 -0.20108,0.0106 -0.3175,0.0212 -0.11642,0.0212 -0.13758,0.0212 -0.34925,-0.0318 -0.34925,-0.17991 0,-0.21167 0.58208,-0.39159 0.37042,-0.127 0.49742,-0.42333 l 1.38641,-3.21733 q 0.0952,-0.22225 0.13759,-0.254 0.0741,-0.0635 0.16933,-0.15875 0.10583,-0.10584 0.16933,-0.16934 0.0741,-0.0635 0.14817,-0.127 0.0741,-0.0635 0.127,-0.0952 0.0529,-0.0317 0.0847,-0.0317 0.0635,0 0.14816,0.11642 0.0952,0.10583 0.14817,0.29633 l 1.0795,3.556 q 0.0318,0.11642 0.1905,0.28575 0.16933,0.16934 0.39158,0.26459 z"
             style="font-style:normal;font-variant:normal;font-weight:normal;font-stretch:normal;font-family:'EB Garamond SC';-inkscape-font-specification:'EB Garamond SC';stroke-width:0.07000434"
             id="path106" />
          <path
             d="m 129.60902,218.7636 v 2.27542 q 0,0.51858 0.10583,0.66675 0.0741,0.11641 0.23284,0.17991 0.0529,0.0212 0.14816,0.0635 0.0952,0.0317 0.15875,0.0635 0.0635,0.0318 0.127,0.0741 0.0741,0.0317 0.10584,0.0741 0.0423,0.0423 0.0423,0.0847 0,0.14816 -0.33867,0.17991 -0.0212,0 -0.1905,-0.0212 -0.15875,-0.0106 -0.41275,-0.0212 -0.24341,-0.0212 -0.46566,-0.0212 -0.22225,0 -0.45509,0.0212 -0.22225,0.0106 -0.37041,0.0212 -0.13759,0.0212 -0.15875,0.0212 -0.34925,-0.0318 -0.34925,-0.17991 0,-0.0423 0.0318,-0.0847 0.0423,-0.0423 0.10583,-0.0741 0.0741,-0.0423 0.13758,-0.0741 0.0635,-0.0317 0.15875,-0.0635 0.0952,-0.0423 0.14817,-0.0635 0.0529,-0.0212 0.0952,-0.0529 0.0423,-0.0318 0.0741,-0.0529 0.0318,-0.0318 0.0529,-0.0741 0.0318,-0.0423 0.0423,-0.0635 0.0212,-0.0317 0.0318,-0.0952 0.0106,-0.0635 0.0106,-0.0847 0.0106,-0.0212 0.0106,-0.0952 0.0106,-0.0847 0.0106,-0.10583 0,-0.0212 0,-0.10584 0,-0.0952 0,-0.11641 v -2.27542 q 0,-0.0952 -0.0106,-0.15875 0,-0.0741 0,-0.127 0,-0.0635 -0.0317,-0.10583 -0.0212,-0.0529 -0.0317,-0.0847 0,-0.0318 -0.0529,-0.0529 -0.0529,-0.0318 -0.0635,-0.0423 -0.0106,-0.0212 -0.0953,-0.0423 -0.0741,-0.0317 -0.10583,-0.0423 -0.0317,-0.0106 -0.14817,-0.0423 -0.10583,-0.0317 -0.15875,-0.0423 -0.16933,-0.0529 -0.16933,-0.22225 0,-0.0847 0.11642,-0.13759 0.11641,-0.0529 0.254,-0.0529 0.1905,0 0.65616,-0.0317 0.46567,-0.0423 0.762,-0.0423 0.58209,0 1.09009,0.13759 0.508,0.13758 0.87841,0.48683 0.381,0.33867 0.381,0.83608 0,0.60325 -0.508,1.0795 -0.508,0.47625 -1.02658,0.47625 -0.29633,0 -0.29633,-0.16933 0,-0.17992 0.20108,-0.23283 0.23283,-0.0635 0.40217,-0.34925 0.17991,-0.29634 0.17991,-0.73025 0,-0.48684 -0.27516,-0.70909 -0.26459,-0.23283 -0.67734,-0.23283 -0.15875,0 -0.22225,0.0317 -0.0529,0.0212 -0.0952,0.15875 -0.0423,0.13758 -0.0423,0.4445 z"
             style="font-style:normal;font-variant:normal;font-weight:normal;font-stretch:normal;font-family:'EB Garamond SC';-inkscape-font-specification:'EB Garamond SC';stroke-width:0.07000434"
             id="path108" />
          <path
             d="m 134.48728,220.45693 v 0.58209 q 0,0.75141 0.21166,0.84666 0.0529,0.0212 0.14817,0.0635 0.0953,0.0317 0.15875,0.0635 0.0635,0.0318 0.127,0.0741 0.0741,0.0317 0.10583,0.0741 0.0423,0.0423 0.0423,0.0847 0,0.14816 -0.33867,0.17991 -0.0212,0 -0.15875,-0.0212 -0.127,-0.0106 -0.34925,-0.0212 -0.21167,-0.0212 -0.43392,-0.0212 -0.22225,0 -0.45508,0.0212 -0.22225,0.0106 -0.37042,0.0212 -0.13758,0.0212 -0.15875,0.0212 -0.34925,-0.0318 -0.34925,-0.17991 0,-0.0423 0.0317,-0.0847 0.0423,-0.0423 0.10584,-0.0741 0.0741,-0.0423 0.13758,-0.0741 0.0635,-0.0317 0.15875,-0.0635 0.0952,-0.0423 0.14817,-0.0635 0.0529,-0.0212 0.0952,-0.0529 0.0423,-0.0318 0.0741,-0.0529 0.0317,-0.0318 0.0529,-0.0741 0.0317,-0.0423 0.0423,-0.0635 0.0212,-0.0317 0.0317,-0.0952 0.0106,-0.0635 0.0106,-0.0847 0.0106,-0.0212 0.0106,-0.0952 0.0106,-0.0847 0.0106,-0.10583 0,-0.0212 0,-0.10584 0,-0.0952 0,-0.11641 v -2.27542 q 0,-0.0952 -0.0106,-0.15875 0,-0.0741 0,-0.127 0,-0.0635 -0.0317,-0.10583 -0.0212,-0.0529 -0.0318,-0.0847 0,-0.0318 -0.0529,-0.0529 -0.0529,-0.0318 -0.0635,-0.0423 -0.0106,-0.0212 -0.0952,-0.0423 -0.0741,-0.0317 -0.10583,-0.0423 -0.0317,-0.0106 -0.14817,-0.0423 -0.10583,-0.0317 -0.15875,-0.0423 -0.16933,-0.0529 -0.16933,-0.22225 0,-0.0847 0.11641,-0.13759 0.11642,-0.0529 0.254,-0.0529 0.21167,0 0.48684,0.0318 0.28575,0.0212 0.47625,0.0212 0.1905,0 0.42333,-0.0212 0.23283,-0.0318 0.41275,-0.0318 0.13758,0 0.254,0.0529 0.11642,0.0529 0.11642,0.13759 0,0.16933 -0.15875,0.22225 -0.43392,0.11641 -0.51859,0.21166 -0.0847,0.0952 -0.0847,0.52917 v 0.8255 q 0,0.1905 0.13758,0.1905 h 2.14842 q 0.20108,-0.0106 0.20108,-0.1905 v -0.8255 q 0,-0.43392 -0.0847,-0.52917 -0.0847,-0.0952 -0.48683,-0.21166 -0.16933,-0.0529 -0.16933,-0.22225 0,-0.0847 0.11641,-0.13759 0.11642,-0.0529 0.254,-0.0529 0.21167,0 0.42334,0.0318 0.22225,0.0212 0.41275,0.0212 0.1905,0 0.47625,-0.0212 0.29633,-0.0318 0.47625,-0.0318 0.13758,0 0.254,0.0529 0.11641,0.0529 0.11641,0.13759 0,0.16933 -0.15875,0.22225 -0.508,0.14816 -0.58208,0.21166 -0.13758,0.10584 -0.13758,0.52917 v 2.27542 q 0,0.51858 0.10583,0.66675 0.0741,0.11641 0.23283,0.17991 0.0529,0.0212 0.14817,0.0635 0.0952,0.0317 0.15875,0.0635 0.0635,0.0318 0.127,0.0741 0.0741,0.0317 0.10583,0.0741 0.0423,0.0423 0.0423,0.0847 0,0.14816 -0.33867,0.17991 -0.0212,0 -0.1905,-0.0212 -0.15875,-0.0106 -0.41275,-0.0212 -0.24342,-0.0212 -0.46567,-0.0212 -0.22225,0 -0.42333,0.0212 -0.1905,0.0106 -0.30692,0.0212 -0.10583,0.0212 -0.127,0.0212 -0.34925,-0.0318 -0.34925,-0.17991 0,-0.0423 0.0317,-0.0847 0.0423,-0.0423 0.10584,-0.0741 0.0741,-0.0423 0.13758,-0.0741 0.0635,-0.0317 0.15875,-0.0635 0.0952,-0.0423 0.14817,-0.0635 0.0741,-0.0318 0.11641,-0.0847 0.0529,-0.0635 0.0635,-0.15875 0.0212,-0.10584 0.0212,-0.15875 0.0106,-0.0635 0,-0.22225 0,-0.15875 0,-0.22225 v -0.61384 q 0,-0.16933 -0.13758,-0.16933 h -2.20134 q -0.14816,0 -0.14816,0.20108 z"
             style="font-style:normal;font-variant:normal;font-weight:normal;font-stretch:normal;font-family:'EB Garamond SC';-inkscape-font-specification:'EB Garamond SC';stroke-width:0.07000434"
             id="path110" />
          <path
             d="m 141.81657,217.61002 q 0.13758,0 0.254,0.0529 0.11641,0.0529 0.11641,0.13759 0,0.16933 -0.15875,0.22225 -0.508,0.14816 -0.58208,0.21166 -0.13758,0.10584 -0.13758,0.52917 v 2.27542 q 0,0.51858 0.10583,0.66675 0.0741,0.11641 0.23283,0.17991 0.0529,0.0212 0.14817,0.0635 0.0952,0.0317 0.15875,0.0635 0.0635,0.0318 0.127,0.0741 0.0741,0.0317 0.10583,0.0741 0.0423,0.0423 0.0423,0.0847 0,0.14816 -0.33867,0.17991 -0.0212,0 -0.1905,-0.0212 -0.15875,-0.0106 -0.41275,-0.0212 -0.24342,-0.0212 -0.46567,-0.0212 -0.22225,0 -0.45508,0.0212 -0.22225,0.0106 -0.37042,0.0212 -0.13758,0.0212 -0.15875,0.0212 -0.34925,-0.0318 -0.34925,-0.17991 0,-0.0423 0.0318,-0.0847 0.0423,-0.0423 0.10584,-0.0741 0.0741,-0.0423 0.13758,-0.0741 0.0635,-0.0317 0.15875,-0.0635 0.0953,-0.0423 0.14817,-0.0635 0.0529,-0.0212 0.0952,-0.0529 0.0423,-0.0318 0.0741,-0.0529 0.0317,-0.0318 0.0529,-0.0741 0.0317,-0.0423 0.0423,-0.0635 0.0212,-0.0317 0.0317,-0.0952 0.0106,-0.0635 0.0106,-0.0847 0.0106,-0.0212 0.0106,-0.0952 0.0106,-0.0847 0.0106,-0.10583 0,-0.0212 0,-0.10584 0,-0.0952 0,-0.11641 v -2.27542 q 0,-0.0952 -0.0106,-0.15875 0,-0.0741 0,-0.127 0,-0.0635 -0.0318,-0.10583 -0.0212,-0.0529 -0.0317,-0.0847 0,-0.0318 -0.0529,-0.0529 -0.0529,-0.0318 -0.0635,-0.0423 -0.0106,-0.0212 -0.0952,-0.0423 -0.0741,-0.0317 -0.10583,-0.0423 -0.0318,-0.0106 -0.14817,-0.0423 -0.10583,-0.0317 -0.15875,-0.0423 -0.16933,-0.0529 -0.16933,-0.22225 0,-0.0847 0.11641,-0.13759 0.11642,-0.0529 0.254,-0.0529 0.21167,0 0.48684,0.0318 0.28575,0.0212 0.47625,0.0212 0.1905,0 0.47625,-0.0212 0.29633,-0.0318 0.47625,-0.0318 z"
             style="font-style:normal;font-variant:normal;font-weight:normal;font-stretch:normal;font-family:'EB Garamond SC';-inkscape-font-specification:'EB Garamond SC';stroke-width:0.07000434"
             id="path112" />
          <path
             d="m 145.3767,217.4301 q 0.33866,0 0.68791,0.0741 0.34925,0.0741 0.45509,0.15875 0.3175,0.24342 0.43391,0.37042 0.11642,0.11642 0.11642,0.22225 0,0.26458 -0.11642,0.52917 -0.11641,0.254 -0.20108,0.254 -0.0847,0 -0.127,-0.0423 -0.0423,-0.0529 -0.127,-0.22225 -0.0847,-0.16933 -0.16933,-0.29633 -0.33867,-0.51858 -1.06892,-0.51858 -0.70908,0 -1.15358,0.61383 -0.43392,0.61383 -0.43392,1.42875 0,0.79375 0.40217,1.40758 0.41275,0.60325 1.10066,0.60325 0.49742,0 1.10067,-0.56091 0.0741,-0.0635 0.16933,-0.21167 0.10584,-0.14817 0.17992,-0.254 0.0847,-0.10583 0.13758,-0.10583 0.16934,0 0.16934,0.254 0,0.79375 -0.35984,0.9525 -0.94191,0.42333 -1.61925,0.42333 -0.98425,0 -1.67216,-0.71967 -0.68792,-0.71966 -0.68792,-1.70391 0,-1.09009 0.8255,-1.87325 0.83608,-0.78317 1.95792,-0.78317 z"
             style="font-style:normal;font-variant:normal;font-weight:normal;font-stretch:normal;font-family:'EB Garamond SC';-inkscape-font-specification:'EB Garamond SC';stroke-width:0.07000434"
             id="path114" />
          <path
             d="m 152.7718,217.58885 0.17992,-0.13758 q 0.10583,-0.0847 0.21167,-0.27517 0.11641,-0.1905 0.11641,-0.33867 0,-0.28575 -0.1905,-0.45508 -0.17991,-0.17992 -0.45508,-0.17992 -0.17992,0 -0.41275,0.15875 -0.22225,0.14817 -0.22225,0.30692 0,0.0952 0.23283,0.381 0.23284,0.28575 0.34925,0.37042 z m -0.49741,0.91017 -0.98425,0.8255 q -0.21167,0.17991 -0.21167,0.55033 0,0.66675 0.34925,1.2065 0.35983,0.52917 0.91017,0.52917 0.45508,0 0.80433,-0.23284 0.34925,-0.23283 0.74083,-0.67733 l 0.24342,-0.27517 q -0.0106,-0.0212 -0.0423,-0.0423 -0.0212,-0.0212 -0.0317,-0.0423 -0.9525,-1.09009 -1.68275,-1.75684 z m 4.51908,3.94758 q -0.59267,0 -0.99483,-0.11642 -0.39159,-0.127 -0.66675,-0.49741 -0.32809,-0.51859 -0.6985,-1.016 l -0.6985,0.77258 q -0.40217,0.45508 -0.77259,0.6985 -0.37041,0.24342 -0.83608,0.24342 -0.86783,0 -1.42875,-0.60325 -0.56092,-0.61384 -0.56092,-1.5875 0,-0.32809 0.23284,-0.73025 0.24341,-0.41275 0.62441,-0.6985 l 0.94192,-0.70909 -0.17992,-0.15875 q -0.60325,-0.51858 -0.60325,-1.18533 0,-0.55033 0.48684,-0.84667 0.49741,-0.30691 1.143,-0.30691 0.53975,0 0.94191,0.21166 0.40217,0.21167 0.40217,0.64559 0,0.39158 -0.47625,0.79375 l -0.58208,0.48683 0.0741,0.0635 q 0.68792,0.60325 1.53458,1.60867 0.0212,0.0212 0.0635,0.0741 0.0423,0.0529 0.0635,0.0741 l 0.6985,-0.79375 q 0.14817,-0.17991 0.14817,-0.29633 0,-0.0741 -0.0635,-0.127 -0.0635,-0.0529 -0.11642,-0.0635 -0.254,-0.0529 -0.254,-0.17992 0,-0.0847 0.0741,-0.14816 0.0741,-0.0635 0.1905,-0.0635 h 0.83608 q 0.0847,0 0.3175,-0.0317 0.23283,-0.0318 0.3175,-0.0318 0.254,0 0.254,0.21166 0,0.127 -0.35983,0.24342 -0.10584,0.0423 -0.35984,0.22225 -0.24341,0.17992 -0.42333,0.381 l -0.9525,1.05833 1.05833,1.34409 q 0.1905,0.24341 0.381,0.35983 0.20109,0.11642 0.34925,0.14817 0.15875,0.0212 0.52917,0.0529 0.17992,0.0212 0.17992,0.17992 0,0.13758 -0.27517,0.23283 -0.27517,0.0847 -0.53975,0.0847 z"
             style="font-style:normal;font-variant:normal;font-weight:normal;font-stretch:normal;font-family:'EB Garamond SC';-inkscape-font-specification:'EB Garamond SC';stroke-width:0.07000434"
             id="path116" />
          <path
             d="m 164.75462,216.53052 q -0.17992,-0.0635 -0.17992,-0.1905 0,-0.1905 0.26459,-0.1905 0.0741,0 0.27516,0.0212 0.20109,0.0212 0.28575,0.0212 0.0847,0 0.33867,-0.0212 0.254,-0.0212 0.33867,-0.0212 0.26458,0 0.26458,0.1905 0,0.11641 -0.17992,0.17991 -0.33866,0.10584 -0.51858,0.34925 -0.17992,0.23284 -0.32808,0.635 l -0.52917,1.4605 0.42333,1.13242 q 0.1905,0.51858 0.3175,0.51858 0.17992,0 0.39159,-0.635 l 0.78316,-2.37066 q 0.17992,-0.56092 0.17992,-0.78317 0,-0.23283 -0.1905,-0.29633 -0.17992,-0.0635 -0.17992,-0.1905 0,-0.1905 0.254,-0.1905 0.0741,0 0.29634,0.0212 0.22225,0.0212 0.29633,0.0212 0.0741,0 0.32808,-0.0212 0.254,-0.0212 0.32808,-0.0212 0.26459,0 0.26459,0.1905 0,0.11641 -0.17992,0.17991 -0.33867,0.10584 -0.51858,0.34925 -0.17992,0.23284 -0.32808,0.635 l -1.31234,3.6195 q -0.52916,1.43934 -0.6985,1.43934 -0.13758,0 -0.40216,-0.73025 l -0.56092,-1.48167 -0.27517,0.77258 q -0.52916,1.43934 -0.6985,1.43934 -0.13758,0 -0.40216,-0.73025 l -1.60867,-4.27567 q -0.11642,-0.3175 -0.1905,-0.45508 -0.0635,-0.13759 -0.254,-0.30692 -0.1905,-0.16933 -0.508,-0.27517 -0.16933,-0.0529 -0.16933,-0.17991 0,-0.0847 0.11641,-0.13759 0.11642,-0.0529 0.254,-0.0529 0.0847,0 0.39159,0.0212 0.3175,0.0212 0.39158,0.0212 0.0741,0 0.32808,-0.0212 0.254,-0.0212 0.33867,-0.0212 0.37042,0 0.37042,0.15875 0,0.15875 -0.15875,0.21166 -0.0847,0.0318 -0.127,0.0847 -0.0318,0.0529 -0.0318,0.13758 0.0106,0.0847 0.0423,0.20109 0.0423,0.10583 0.0953,0.24341 0.0212,0.0423 0.0317,0.0741 0.0106,0.0317 0.0212,0.0635 l 1.03716,2.77283 q 0.1905,0.51858 0.3175,0.51858 0.17992,0 0.39159,-0.635 l 0.0741,-0.22225 -0.8255,-2.20133 q -0.0317,-0.0741 -0.10583,-0.27517 -0.0635,-0.21166 -0.0952,-0.28575 -0.0317,-0.0847 -0.0952,-0.21166 -0.0635,-0.127 -0.13759,-0.17992 -0.0635,-0.0635 -0.13758,-0.0847 -0.16933,-0.0423 -0.16933,-0.17991 0,-0.1905 0.23283,-0.1905 0.0741,0 0.33867,0.0212 0.26458,0.0212 0.33866,0.0212 0.0741,0 0.30692,-0.0212 0.23283,-0.0212 0.30692,-0.0212 0.13758,0 0.254,0.0529 0.11641,0.0529 0.11641,0.13759 0,0.127 -0.15875,0.17991 -0.13758,0.0423 -0.17991,0.15875 -0.0317,0.10584 0,0.24342 0.0318,0.13758 0.127,0.40217 l 0.35983,0.97366 0.23283,-0.68791 q 0.0952,-0.29634 0.13759,-0.46567 0.0529,-0.16933 0.0529,-0.30692 0.0106,-0.13758 -0.0423,-0.20108 -0.0423,-0.0741 -0.15875,-0.10583 z"
             style="font-style:normal;font-variant:normal;font-weight:normal;font-stretch:normal;font-family:'EB Garamond SC';-inkscape-font-specification:'EB Garamond SC';stroke-width:0.07000434"
             id="path118" />
          <path
             d="m 169.61584,222.36193 q -0.13758,0 -0.51858,0.0317 -0.37042,0.0318 -0.46567,0.0318 -0.10583,0 -0.23283,-0.0529 -0.11642,-0.0529 -0.11642,-0.127 0,-0.0423 0.0317,-0.0847 0.0423,-0.0423 0.10583,-0.0741 0.0741,-0.0423 0.13759,-0.0741 0.0635,-0.0317 0.15875,-0.0635 0.0952,-0.0423 0.14816,-0.0635 0.0529,-0.0212 0.0952,-0.0529 0.0423,-0.0318 0.0741,-0.0529 0.0317,-0.0318 0.0529,-0.0741 0.0317,-0.0423 0.0423,-0.0635 0.0212,-0.0317 0.0318,-0.0952 0.0106,-0.0635 0.0106,-0.0847 0.0106,-0.0212 0.0106,-0.0952 0.0106,-0.0847 0.0106,-0.10583 0,-0.0212 0,-0.10584 0,-0.0952 0,-0.11641 v -2.27542 q 0,-0.0952 -0.0106,-0.15875 0,-0.0741 0,-0.127 0,-0.0635 -0.0317,-0.10583 -0.0212,-0.0529 -0.0318,-0.0847 0,-0.0318 -0.0529,-0.0529 -0.0529,-0.0318 -0.0635,-0.0423 -0.0106,-0.0212 -0.0953,-0.0423 -0.0741,-0.0317 -0.10584,-0.0423 -0.0317,-0.0106 -0.14816,-0.0423 -0.10584,-0.0317 -0.15875,-0.0423 -0.16934,-0.0529 -0.16934,-0.22225 0,-0.0847 0.11642,-0.13759 0.11642,-0.0529 0.254,-0.0529 0.21167,0 0.48683,0.0212 0.28575,0.0212 0.47625,0.0212 0.17992,0 0.97367,-0.0212 0.80433,-0.0212 1.03717,-0.0212 0.127,0 0.14816,0.0212 0.0317,0.0212 0.0741,0.17992 0.0635,0.1905 0.0635,0.51858 0,0.32809 -0.17992,0.32809 -0.21167,0 -0.34925,-0.35984 -0.0741,-0.1905 -0.32808,-0.1905 h -0.74084 q -0.16933,0 -0.21166,0.0529 -0.0423,0.0423 -0.0423,0.20108 v 0.91017 q 0,0.42333 0.16934,0.42333 h 0.52916 q 0.20109,0 0.3175,-0.10583 0.127,-0.10583 0.20109,-0.21167 0.0741,-0.10583 0.15875,-0.10583 0.127,0 0.127,0.70908 0,0.41275 -0.0212,0.5715 -0.0212,0.14817 -0.127,0.14817 -0.0635,0 -0.127,-0.0741 -0.0529,-0.0741 -0.10583,-0.15875 -0.0423,-0.0847 -0.15875,-0.15875 -0.11642,-0.0741 -0.28575,-0.0741 h -0.48684 q -0.0952,0 -0.11641,0.0106 -0.0212,0 -0.0529,0.0847 -0.0212,0.0741 -0.0212,0.254 v 0.71967 q 0,0.45508 0.37042,0.45508 h 0.889 q 0.1905,0 0.39158,-0.47625 0,-0.0106 0.0212,-0.0423 l 0.0212,-0.0635 q 0.0847,-0.23283 0.26458,-0.23283 0.23283,0 0.23283,0.39158 0,0.27517 -0.16933,0.68792 -0.16933,0.40216 -0.29633,0.40216 -0.34925,0 -1.09009,-0.0318 -0.74083,-0.0317 -1.12183,-0.0317 z"
             style="font-style:normal;font-variant:normal;font-weight:normal;font-stretch:normal;font-family:'EB Garamond SC';-inkscape-font-specification:'EB Garamond SC';stroke-width:0.07000434"
             id="path120" />
          <path
             d="m 174.79489,220.27702 v 0.91016 q 0,0.29634 0.16934,0.47625 0.17991,0.16934 0.47625,0.16934 0.30691,0 0.49741,-0.254 0.1905,-0.254 0.1905,-0.64559 0,-0.86783 -1.016,-0.86783 -0.3175,0 -0.3175,0.21167 z m 0,-1.61925 v 0.61383 q 0,0.30692 0.24342,0.30692 0.46567,0 0.73025,-0.17992 0.26458,-0.17992 0.26458,-0.6985 0,-0.254 -0.26458,-0.41275 -0.26458,-0.15875 -0.58208,-0.15875 -0.22225,0 -0.30692,0.0952 -0.0847,0.0847 -0.0847,0.43392 z m -0.48683,3.70416 q -0.22225,0 -0.45508,0.0212 -0.22225,0.0106 -0.37042,0.0212 -0.13758,0.0212 -0.15875,0.0212 -0.34925,-0.0318 -0.34925,-0.17991 0,-0.0423 0.0318,-0.0847 0.0423,-0.0423 0.10583,-0.0741 0.0741,-0.0423 0.13759,-0.0741 0.0635,-0.0317 0.15875,-0.0635 0.0952,-0.0423 0.14816,-0.0635 0.0529,-0.0212 0.0953,-0.0529 0.0423,-0.0318 0.0741,-0.0529 0.0318,-0.0318 0.0529,-0.0741 0.0318,-0.0423 0.0423,-0.0635 0.0212,-0.0317 0.0317,-0.0952 0.0106,-0.0635 0.0106,-0.0847 0.0106,-0.0212 0.0106,-0.0952 0.0106,-0.0847 0.0106,-0.10583 0,-0.0212 0,-0.10584 0,-0.0952 0,-0.11641 v -2.27542 q 0,-0.0952 -0.0106,-0.15875 0,-0.0741 0,-0.127 0,-0.0635 -0.0318,-0.10583 -0.0212,-0.0529 -0.0317,-0.0847 0,-0.0318 -0.0529,-0.0529 -0.0529,-0.0318 -0.0635,-0.0423 -0.0106,-0.0212 -0.0952,-0.0423 -0.0741,-0.0317 -0.10584,-0.0423 -0.0318,-0.0106 -0.14816,-0.0423 -0.10584,-0.0317 -0.15875,-0.0423 -0.16934,-0.0529 -0.16934,-0.22225 0,-0.0847 0.11642,-0.13759 0.11642,-0.0529 0.254,-0.0529 0.20108,0 0.68792,-0.0423 0.49741,-0.0423 0.71966,-0.0423 0.4445,0 0.78317,0.0423 0.33867,0.0423 0.66675,0.15875 0.32808,0.10584 0.508,0.33867 0.17992,0.23283 0.17992,0.58208 0,0.73025 -0.87842,0.97367 -0.0529,0.0106 -0.0635,0.0423 -0.0106,0.0212 0.0212,0.0529 0.0318,0.0212 0.0847,0.0317 0.45509,0.0741 0.762,0.42333 0.3175,0.33867 0.3175,0.78317 0,0.61383 -0.53975,1.04775 -0.53975,0.42333 -1.2065,0.42333 -0.127,0 -0.48683,-0.0318 -0.35983,-0.0317 -0.635,-0.0317 z"
             style="font-style:normal;font-variant:normal;font-weight:normal;font-stretch:normal;font-family:'EB Garamond SC';-inkscape-font-specification:'EB Garamond SC';stroke-width:0.07000434"
             id="path122" />
          <path
             d="m 181.98163,216.89035 v 3.7465 q 0,0.77258 0.4445,1.06892 0.45509,0.29633 1.24884,0.29633 0.889,0 1.40758,-0.83608 0.51858,-0.83609 0.51858,-1.92617 0,-1.15358 -0.78316,-1.91558 -0.78317,-0.77259 -1.91559,-0.77259 -0.37041,0 -0.64558,0.0952 -0.27517,0.0847 -0.27517,0.24342 z m 1.27,-0.81492 q 0.89959,0 1.69334,0.35984 0.80433,0.34925 1.32291,1.03716 0.51859,0.68792 0.51859,1.55575 0,0.6985 -0.20109,1.31234 -0.20108,0.61383 -0.59266,1.10066 -0.39159,0.47625 -1.03717,0.762 -0.64558,0.27517 -1.47108,0.27517 -0.5715,0 -1.22767,-0.0635 -0.64558,-0.0529 -0.8255,-0.0529 -0.21167,0 -0.49742,0.0212 -0.27516,0.0106 -0.47625,0.0212 -0.1905,0.0212 -0.21166,0.0212 -0.34925,-0.0318 -0.34925,-0.17991 0,-0.0741 0.0847,-0.11642 0.0847,-0.0529 0.254,-0.10583 0.17992,-0.0635 0.24342,-0.0952 0.49742,-0.22225 0.49742,-0.889 v -3.73592 q 0,-0.11642 -0.0212,-0.20108 -0.0106,-0.0847 -0.0317,-0.14817 -0.0106,-0.0635 -0.0741,-0.11642 -0.0529,-0.0529 -0.0847,-0.0847 -0.0212,-0.0317 -0.127,-0.0635 -0.0952,-0.0423 -0.13758,-0.0529 -0.0423,-0.0212 -0.1905,-0.0529 -0.13759,-0.0423 -0.20109,-0.0635 -0.16933,-0.0529 -0.16933,-0.17991 0,-0.1905 0.37042,-0.1905 0.16933,0 0.42333,0.0106 0.26458,0 0.42333,0 0.32809,0 1.04775,-0.0423 0.71967,-0.0423 1.04775,-0.0423 z"
             style="font-style:normal;font-variant:normal;font-weight:normal;font-stretch:normal;font-family:'EB Garamond SC';-inkscape-font-specification:'EB Garamond SC';stroke-width:0.07000434"
             id="path124" />
          <path
             d="m 188.92216,222.36193 q -0.13759,0 -0.51859,0.0317 -0.37041,0.0318 -0.46566,0.0318 -0.10584,0 -0.23284,-0.0529 -0.11641,-0.0529 -0.11641,-0.127 0,-0.0423 0.0317,-0.0847 0.0423,-0.0423 0.10583,-0.0741 0.0741,-0.0423 0.13758,-0.0741 0.0635,-0.0317 0.15875,-0.0635 0.0952,-0.0423 0.14817,-0.0635 0.0529,-0.0212 0.0952,-0.0529 0.0423,-0.0318 0.0741,-0.0529 0.0318,-0.0318 0.0529,-0.0741 0.0318,-0.0423 0.0423,-0.0635 0.0212,-0.0317 0.0318,-0.0952 0.0106,-0.0635 0.0106,-0.0847 0.0106,-0.0212 0.0106,-0.0952 0.0106,-0.0847 0.0106,-0.10583 0,-0.0212 0,-0.10584 0,-0.0952 0,-0.11641 v -2.27542 q 0,-0.0952 -0.0106,-0.15875 0,-0.0741 0,-0.127 0,-0.0635 -0.0317,-0.10583 -0.0212,-0.0529 -0.0317,-0.0847 0,-0.0318 -0.0529,-0.0529 -0.0529,-0.0318 -0.0635,-0.0423 -0.0106,-0.0212 -0.0953,-0.0423 -0.0741,-0.0317 -0.10583,-0.0423 -0.0317,-0.0106 -0.14817,-0.0423 -0.10583,-0.0317 -0.15875,-0.0423 -0.16933,-0.0529 -0.16933,-0.22225 0,-0.0847 0.11642,-0.13759 0.11641,-0.0529 0.254,-0.0529 0.21166,0 0.48683,0.0212 0.28575,0.0212 0.47625,0.0212 0.17992,0 0.97367,-0.0212 0.80433,-0.0212 1.03716,-0.0212 0.127,0 0.14817,0.0212 0.0317,0.0212 0.0741,0.17992 0.0635,0.1905 0.0635,0.51858 0,0.32809 -0.17991,0.32809 -0.21167,0 -0.34925,-0.35984 -0.0741,-0.1905 -0.32809,-0.1905 h -0.74083 q -0.16933,0 -0.21167,0.0529 -0.0423,0.0423 -0.0423,0.20108 v 0.91017 q 0,0.42333 0.16933,0.42333 h 0.52917 q 0.20108,0 0.3175,-0.10583 0.127,-0.10583 0.20108,-0.21167 0.0741,-0.10583 0.15875,-0.10583 0.127,0 0.127,0.70908 0,0.41275 -0.0212,0.5715 -0.0212,0.14817 -0.127,0.14817 -0.0635,0 -0.127,-0.0741 -0.0529,-0.0741 -0.10584,-0.15875 -0.0423,-0.0847 -0.15875,-0.15875 -0.11641,-0.0741 -0.28575,-0.0741 h -0.48683 q -0.0952,0 -0.11642,0.0106 -0.0212,0 -0.0529,0.0847 -0.0212,0.0741 -0.0212,0.254 v 0.71967 q 0,0.45508 0.37042,0.45508 h 0.889 q 0.1905,0 0.39158,-0.47625 0,-0.0106 0.0212,-0.0423 l 0.0212,-0.0635 q 0.0847,-0.23283 0.26459,-0.23283 0.23283,0 0.23283,0.39158 0,0.27517 -0.16933,0.68792 -0.16934,0.40216 -0.29634,0.40216 -0.34925,0 -1.09008,-0.0318 -0.74083,-0.0317 -1.12183,-0.0317 z"
             style="font-style:normal;font-variant:normal;font-weight:normal;font-stretch:normal;font-family:'EB Garamond SC';-inkscape-font-specification:'EB Garamond SC';stroke-width:0.07000434"
             id="path126" />
          <path
             d="m 194.21762,217.4301 q 0.16933,0 0.29633,0.0317 0.13759,0.0317 0.26459,0.0847 0.13758,0.0529 0.22225,0.0741 0.24341,0.0741 0.24341,0.22225 0,0.75142 -0.16933,0.75142 -0.1905,0 -0.29633,-0.1905 -0.20109,-0.35984 -0.762,-0.35984 -0.24342,0 -0.42334,0.15875 -0.16933,0.14817 -0.16933,0.381 0,0.3175 0.22225,0.508 0.22225,0.1905 0.77258,0.47625 0.65617,0.33867 0.889,0.66675 0.23284,0.3175 0.23284,0.889 0,0.66675 -0.61384,1.02659 -0.60325,0.35983 -1.397,0.35983 -0.381,0 -0.68791,-0.11642 -0.29634,-0.127 -0.33867,-0.254 -0.14817,-0.37041 -0.14817,-0.79375 0,-0.17991 0.15875,-0.17991 0.0952,0 0.26459,0.21166 0.16933,0.20109 0.4445,0.41275 0.27516,0.21167 0.61383,0.21167 0.28575,0 0.46567,-0.20108 0.1905,-0.21167 0.1905,-0.508 0,-0.20109 -0.0953,-0.37042 -0.0847,-0.16933 -0.28575,-0.3175 -0.20109,-0.14817 -0.33867,-0.22225 -0.127,-0.0847 -0.40217,-0.22225 -0.9525,-0.46567 -0.9525,-1.36525 0,-0.62442 0.53975,-0.99483 0.55034,-0.37042 1.25942,-0.37042 z"
             style="font-style:normal;font-variant:normal;font-weight:normal;font-stretch:normal;font-family:'EB Garamond SC';-inkscape-font-specification:'EB Garamond SC';stroke-width:0.07000434"
             id="path128" />
          <path
             d="m 198.55729,217.61002 q 0.13758,0 0.254,0.0529 0.11641,0.0529 0.11641,0.13759 0,0.16933 -0.15875,0.22225 -0.508,0.14816 -0.58208,0.21166 -0.13758,0.10584 -0.13758,0.52917 v 2.27542 q 0,0.51858 0.10583,0.66675 0.0741,0.11641 0.23283,0.17991 0.0529,0.0212 0.14817,0.0635 0.0952,0.0317 0.15875,0.0635 0.0635,0.0318 0.127,0.0741 0.0741,0.0317 0.10583,0.0741 0.0423,0.0423 0.0423,0.0847 0,0.14816 -0.33867,0.17991 -0.0212,0 -0.1905,-0.0212 -0.15875,-0.0106 -0.41275,-0.0212 -0.24342,-0.0212 -0.46567,-0.0212 -0.22225,0 -0.45508,0.0212 -0.22225,0.0106 -0.37042,0.0212 -0.13758,0.0212 -0.15875,0.0212 -0.34925,-0.0318 -0.34925,-0.17991 0,-0.0423 0.0318,-0.0847 0.0423,-0.0423 0.10584,-0.0741 0.0741,-0.0423 0.13758,-0.0741 0.0635,-0.0317 0.15875,-0.0635 0.0952,-0.0423 0.14817,-0.0635 0.0529,-0.0212 0.0953,-0.0529 0.0423,-0.0318 0.0741,-0.0529 0.0318,-0.0318 0.0529,-0.0741 0.0318,-0.0423 0.0423,-0.0635 0.0212,-0.0317 0.0318,-0.0952 0.0106,-0.0635 0.0106,-0.0847 0.0106,-0.0212 0.0106,-0.0952 0.0106,-0.0847 0.0106,-0.10583 0,-0.0212 0,-0.10584 0,-0.0952 0,-0.11641 v -2.27542 q 0,-0.0952 -0.0106,-0.15875 0,-0.0741 0,-0.127 0,-0.0635 -0.0317,-0.10583 -0.0212,-0.0529 -0.0317,-0.0847 0,-0.0318 -0.0529,-0.0529 -0.0529,-0.0318 -0.0635,-0.0423 -0.0106,-0.0212 -0.0952,-0.0423 -0.0741,-0.0317 -0.10583,-0.0423 -0.0317,-0.0106 -0.14817,-0.0423 -0.10583,-0.0317 -0.15875,-0.0423 -0.16933,-0.0529 -0.16933,-0.22225 0,-0.0847 0.11641,-0.13759 0.11642,-0.0529 0.254,-0.0529 0.21167,0 0.48684,0.0318 0.28575,0.0212 0.47625,0.0212 0.1905,0 0.47625,-0.0212 0.29633,-0.0318 0.47625,-0.0318 z"
             style="font-style:normal;font-variant:normal;font-weight:normal;font-stretch:normal;font-family:'EB Garamond SC';-inkscape-font-specification:'EB Garamond SC';stroke-width:0.07000434"
             id="path130" />
          <path
             d="m 203.45092,221.58935 q 0,0.0741 0,0.17992 0.0106,0.10583 0.0106,0.127 0,0.0106 -0.0317,0.0635 -0.0318,0.0423 -0.0741,0.0635 -0.0318,0.0212 -0.13758,0.0635 -0.94192,0.42333 -1.61925,0.42333 -0.98425,0 -1.67217,-0.71967 -0.68792,-0.71966 -0.68792,-1.70391 0,-1.09009 0.8255,-1.87325 0.83609,-0.78317 1.95792,-0.78317 0.73025,0 1.36525,0.254 0.21167,0.0952 0.21167,0.381 0,0.29633 -0.0635,0.60325 -0.0635,0.30692 -0.13759,0.30692 -0.127,0 -0.21166,-0.10584 -0.0741,-0.11641 -0.17992,-0.39158 -0.0952,-0.24342 -0.42333,-0.381 -0.3175,-0.13758 -0.67734,-0.13758 -0.70908,0 -1.15358,0.61383 -0.43392,0.61383 -0.43392,1.42875 0,0.79375 0.40217,1.40758 0.41275,0.60325 1.10067,0.60325 0.27516,0 0.49741,-0.13758 0.22225,-0.14817 0.22225,-0.33867 v -0.56091 q 0,-0.17992 -0.11641,-0.24342 -0.10584,-0.0635 -0.58209,-0.20108 -0.16933,-0.0529 -0.16933,-0.22225 0,-0.0847 0.11642,-0.13759 0.11641,-0.0529 0.254,-0.0529 0.21166,0 0.48683,0.0318 0.28575,0.0212 0.47625,0.0212 0.1905,0 0.35983,-0.0212 0.17992,-0.0318 0.35984,-0.0318 0.27516,0 0.27516,0.1905 0,0.15875 -0.15875,0.22225 -0.39158,0.127 -0.39158,0.4445 z"
             style="font-style:normal;font-variant:normal;font-weight:normal;font-stretch:normal;font-family:'EB Garamond SC';-inkscape-font-specification:'EB Garamond SC';stroke-width:0.07000434"
             id="path132" />
          <path
             d="m 208.53043,218.7636 q 0,-0.56092 -0.55034,-0.74083 -0.16933,-0.0529 -0.16933,-0.22225 0,-0.1905 0.28575,-0.1905 0.0741,0 0.33867,0.0318 0.26458,0.0212 0.41275,0.0212 0.13758,0 0.34925,-0.0212 0.22225,-0.0318 0.3175,-0.0318 0.30691,0 0.30691,0.1905 0,0.17991 -0.15875,0.22225 -0.21166,0.0635 -0.37041,0.26458 -0.14817,0.1905 -0.14817,0.45508 v 1.89442 q 0,0.1905 0.0317,0.60325 0.0423,0.40217 0.0423,0.508 0,0.762 -0.14816,0.762 -0.15875,0 -0.37042,-0.16933 -0.20108,-0.17992 -0.60325,-0.67734 l -1.85208,-2.31775 q -0.0317,-0.0317 -0.0529,0.0529 -0.0317,0.13758 -0.0317,0.41275 v 1.22767 q 0,0.51858 0.10583,0.66675 0.0741,0.11641 0.23284,0.17991 0.15875,0.0741 0.22225,0.11642 0.0741,0.0317 0.14816,0.10583 0.0847,0.0635 0.0847,0.13759 0,0.14816 -0.33867,0.17991 -0.0212,0 -0.127,-0.0212 -0.0952,-0.0106 -0.28575,-0.0212 -0.1905,-0.0212 -0.41275,-0.0212 -0.22225,0 -0.42333,0.0212 -0.20108,0.0106 -0.3175,0.0212 -0.11642,0.0212 -0.13758,0.0212 -0.34925,-0.0318 -0.34925,-0.17991 0,-0.0423 0.0318,-0.0847 0.0423,-0.0423 0.10583,-0.0741 0.0741,-0.0423 0.13758,-0.0741 0.0635,-0.0317 0.15875,-0.0635 0.0952,-0.0423 0.14817,-0.0635 0.0529,-0.0212 0.0953,-0.0529 0.0423,-0.0318 0.0741,-0.0529 0.0318,-0.0318 0.0529,-0.0741 0.0318,-0.0423 0.0423,-0.0635 0.0212,-0.0317 0.0317,-0.0952 0.0106,-0.0635 0.0106,-0.0847 0.0106,-0.0212 0.0106,-0.0952 0.0106,-0.0847 0.0106,-0.10583 0,-0.0212 0,-0.10584 0,-0.0952 0,-0.11641 v -1.9685 q 0,-0.52917 -0.15875,-0.67734 -0.23283,-0.23283 -0.64558,-0.37041 -0.16933,-0.0529 -0.16933,-0.22225 0,-0.0847 0.11641,-0.13759 0.11642,-0.0529 0.254,-0.0529 0.21167,0 0.49742,0.0318 0.29633,0.0212 0.46567,0.0212 0.23283,0 0.65616,0.52917 l 1.86267,2.30717 q 0.0212,0.0212 0.0635,0.0741 0.10583,0.0741 0.11642,-0.0106 z"
             style="font-style:normal;font-variant:normal;font-weight:normal;font-stretch:normal;font-family:'EB Garamond SC';-inkscape-font-specification:'EB Garamond SC';stroke-width:0.07000434"
             id="path134" />
        </g>
      </g>
    </g>
    <g
       id="g1008"
       transform="translate(0.095385,-17.778873)"
       style="fill:#030303;fill-opacity:1">
      <g
         id="text952"
         style="font-style:normal;font-weight:normal;font-size:50.2467804px;line-height:1.25;font-family:sans-serif;letter-spacing:0px;word-spacing:0px;fill:#030303;fill-opacity:1;stroke:none;stroke-width:1.25616944"
         aria-label="AM">
        <path
           id="path954"
           style="font-style:normal;font-variant:normal;font-weight:normal;font-stretch:normal;font-family:Anders;-inkscape-font-specification:Anders;fill:#030303;fill-opacity:1;stroke-width:1.25616944"
           d="m 140.29309,206.77553 q 0,0.30148 -0.25123,0.55272 -0.20099,0.20099 -0.50247,0.20099 -0.60296,0 -0.7537,-0.50247 l -14.62182,-36.88114 -1.65814,4.27098 q 0.20099,0.40197 0.8542,2.00987 0.6532,1.6079 1.60789,3.96949 0.95469,2.31136 2.06012,5.17542 1.10543,2.81382 2.26111,5.72814 1.15567,2.91431 2.21085,5.67788 1.10543,2.76357 1.90938,4.92419 0.8542,2.16061 1.35666,3.51727 0.50247,1.30642 0.50247,1.35666 0,0.55272 -0.50247,0.70346 -0.10049,0 -0.15074,0.0502 -0.0502,0 -0.15074,0 -0.50246,0 -0.70345,-0.50247 l -12.05923,-30.44955 -11.7075,30.44955 q -0.20099,0.50247 -0.7537,0.50247 -0.10049,0 -0.15074,0 0,-0.0502 -0.10049,-0.0502 -0.50247,-0.15074 -0.50247,-0.7537 0,-0.0503 0.60296,-1.65815 0.60296,-1.60789 1.55765,-4.17048 1.00494,-2.56258 2.26111,-5.87887 1.30641,-3.31629 2.61283,-6.78332 1.35666,-3.51727 2.66308,-6.93405 1.35666,-3.41678 2.41184,-6.2306 1.10543,-2.86407 1.85913,-4.77345 0.75371,-1.95962 0.95469,-2.51234 0.20099,-0.45222 0.7537,-0.45222 0.55272,0 0.70346,0.45222 0.20099,0.55272 0.95469,2.51234 0.80395,1.90938 1.90938,4.77345 1.10542,2.81382 2.46209,6.2306 1.40691,3.41678 2.76357,6.93405 1.40691,3.46703 2.71333,6.78332 1.35666,3.31629 2.3616,5.92912 1.00493,2.56258 1.60789,4.17048 0.65321,1.6079 0.65321,1.65814 z"
           inkscape:connector-curvature="0" />
        <path
           id="path956"
           style="font-style:normal;font-variant:normal;font-weight:normal;font-stretch:normal;font-family:Anders;-inkscape-font-specification:Anders;fill:#030303;fill-opacity:1;stroke-width:1.25616944"
           d="m 188.51312,168.03527 q 0,0.25123 -0.0502,0.30148 v 38.43878 q 0,0.30148 -0.25123,0.55272 -0.20099,0.20099 -0.50247,0.20099 -0.30148,0 -0.50246,-0.20099 -0.20099,-0.25124 -0.20099,-0.55272 v -36.27817 l -17.33514,24.26919 q 0.20099,0.35173 0.90444,1.30642 0.70346,0.95469 1.6079,2.26111 0.95469,1.25616 2.00987,2.66307 1.05518,1.35667 1.90938,2.61284 0.85419,1.20592 1.40691,2.06011 0.60296,0.8542 0.60296,1.05519 0,0.35172 -0.25124,0.60296 -0.25123,0.20099 -0.55271,0.20099 -0.40197,0 -0.60296,-0.30148 L 149.0694,168.73872 q -0.15074,-0.20099 -0.15074,-0.50247 0,-0.30148 0.20099,-0.50246 0.20098,-0.25124 0.55271,-0.25124 0.45222,0 0.65321,0.35173 l 18.39032,25.62586 18.39032,-25.82685 q 0.20099,-0.30148 0.55272,-0.30148 0.30148,0 0.55271,0.20099 0.30148,0.20099 0.30148,0.50247 z m -16.48094,38.74026 q 0,0.30148 -0.25124,0.55272 -0.25123,0.20099 -0.55271,0.20099 -0.40197,0 -0.60296,-0.30148 l -20.19921,-28.33919 v 27.63573 q 0,0.35173 -0.25123,0.55271 -0.25124,0.20099 -0.55272,0.20099 -0.30148,0 -0.55271,-0.20099 -0.25123,-0.25123 -0.25123,-0.55271 v -29.94708 q 0,-0.35173 0.20098,-0.65321 0.20099,-0.30148 0.60296,-0.30148 0.40198,0 0.60297,0.35173 0.35172,0.50247 1.45715,2.06012 1.15568,1.5074 2.71333,3.71826 1.60789,2.21086 3.51727,4.87394 1.95963,2.66307 3.91925,5.42665 1.95963,2.71332 3.76851,5.32616 1.85913,2.56258 3.26604,4.6227 1.45716,2.00987 2.31135,3.31629 0.8542,1.30641 0.8542,1.45715 z"
           inkscape:connector-curvature="0" />
      </g>
    </g>
  </g>
</svg>
